# xmcd
#
# Track frame offsets:
#      150
#      13585
#      26320
#      38428
#      48589
#      59171
#      69513
#      80039
#      90979
#      103461
# 
# Disc length: 1585 seconds
#
# Revision: 2
# Processed by: cddbd v1.5.1PL0 Copyright (c) Steve Scherf et al.
#
# Submitted via: FreeRIP 1.21
#
DISCID=7e062f0a
DTITLE=David Houston - Good Old Country
DYEAR=1900
DGENRE=
TTITLE0=Almost persuaded
TTITLE1=My Elusive Dreams
TTITLE2=Already it's Heaven
TTITLE3=You mean the world to me
TTITLE4=Have a little faith
TTITLE5=With one exception
TTITLE6=A woman always knows
TTITLE7=Baby Baby
TTITLE8=Mountain of Love
TTITLE9=Where love used to be
EXTD=
EXTT0=Dottie West and Jim Reeves
EXTT1=Dottie West
EXTT2=Dottie West
EXTT3=Dottie West
EXTT4=Dottie West
EXTT5=Dottie West
EXTT6=Dottie West
EXTT7=Dottie West
EXTT8=Dottie West
EXTT9=Dottie West
PLAYORDER=
